<svg width="6" height="11" viewBox="0 0 6 11" fill="none" xmlns="http://www.w3.org/2000/svg">
<g opacity="0.8">
<path fill-rule="evenodd" clip-rule="evenodd" d="M4.26416 5.49068L0.84133 2.03907C0.58799 1.78328 0.58799 1.37072 0.84133 1.11493C0.962045 0.992732 1.1267 0.924001 1.29844 0.924001C1.47017 0.924001 1.63483 0.992732 1.75554 1.11493L5.63548 5.02793C5.88962 5.28344 5.88962 5.69656 5.63548 5.95207L1.7557 9.86507C1.63483 9.98727 1.47017 10.056 1.29844 10.056C1.1267 10.056 0.962045 9.98727 0.84117 9.86507C0.587991 9.60924 0.587991 9.19668 0.841492 8.94093L4.26416 5.49068Z"/>
<path fill-rule="evenodd" clip-rule="evenodd" d="M4.26416 5.49068L0.84133 2.03907C0.58799 1.78328 0.58799 1.37072 0.84133 1.11493C0.962045 0.992732 1.1267 0.924001 1.29844 0.924001C1.47017 0.924001 1.63483 0.992732 1.75554 1.11493L5.63548 5.02793C5.88962 5.28344 5.88962 5.69656 5.63548 5.95207L1.7557 9.86507C1.63483 9.98727 1.47017 10.056 1.29844 10.056C1.1267 10.056 0.962045 9.98727 0.84117 9.86507C0.587991 9.60924 0.587991 9.19668 0.841492 8.94093L4.26416 5.49068Z" />
<path fill-rule="evenodd" clip-rule="evenodd" d="M4.26416 5.49068L0.84133 2.03907C0.58799 1.78328 0.58799 1.37072 0.84133 1.11493C0.962045 0.992732 1.1267 0.924001 1.29844 0.924001C1.47017 0.924001 1.63483 0.992732 1.75554 1.11493L5.63548 5.02793C5.88962 5.28344 5.88962 5.69656 5.63548 5.95207L1.7557 9.86507C1.63483 9.98727 1.47017 10.056 1.29844 10.056C1.1267 10.056 0.962045 9.98727 0.84117 9.86507C0.587991 9.60924 0.587991 9.19668 0.841492 8.94093L4.26416 5.49068Z"/>
</g>
<defs>
<radialGradient id="paint0_radial_110_1587" cx="0" cy="0" r="1" gradientUnits="userSpaceOnUse" gradientTransform="translate(3.23864 5.49) scale(2.5874 4.566)">
<stop stop-color="#CC8B8B"/>
<stop offset="1" stop-color="#A33B3B"/>
</radialGradient>
</defs>
</svg>
